M48
; DRILL file {KiCad 5.99.0-unknown-ad1ee958b0~131~ubuntu20.04.1} date Thu Sep  9 23:45:57 2021
; FORMAT={-:-/ absolute / inch / decimal}
; #@! TF.CreationDate,2021-09-09T23:45:57+08:00
; #@! TF.GenerationSoftware,Kicad,Pcbnew,5.99.0-unknown-ad1ee958b0~131~ubuntu20.04.1
; #@! TF.FileFunction,Plated,1,2,PTH
FMAT,2
INCH
; #@! TA.AperFunction,Plated,PTH,ViaDrill
T1C0.0157
%
G90
G05
T1
X5.2756Y-4.0551
X5.2756Y-4.1339
X5.2756Y-4.2126
X5.2756Y-4.2913
X5.2756Y-4.3701
X5.2756Y-4.6063
X5.2756Y-4.685
X5.2756Y-4.7638
X5.2756Y-4.8425
X5.2756Y-4.9213
X5.2756Y-5.1575
X5.3937Y-4.6063
X5.3937Y-4.685
X5.3937Y-4.7638
X5.3937Y-4.8425
X5.3937Y-4.9213
X5.4823Y-4.0945
X5.502Y-3.937
X5.5315Y-4.4685
X5.5315Y-4.7539
X5.5315Y-5.2461
X5.5512Y-4.0551
X5.5807Y-4.1732
X5.6299Y-5.2756
X5.7874Y-4.1339
X5.7874Y-5.1969
X5.7874Y-5.2756
X5.8071Y-4.8327
X5.8268Y-4.9213
X5.8268Y-5.0
X5.8661Y-4.1339
X5.876Y-4.2126
X5.876Y-4.3799
X5.9055Y-5.0
X5.9055Y-5.1969
X5.9055Y-5.2756
X5.9252Y-4.3406
X5.9252Y-4.5768
X5.9449Y-3.9764
X5.9449Y-4.0551
X5.9449Y-4.1339
X5.9547Y-4.439
X5.9843Y-4.9213
X6.1417Y-4.3701
X6.1417Y-4.4488
X6.1417Y-4.5276
X6.1417Y-4.6063
X6.1417Y-4.685
X6.1417Y-4.7638
X6.1417Y-4.8425
T0
M30
