%TF.GenerationSoftware,KiCad,Pcbnew,5.99.0-unknown-ad1ee958b0~131~ubuntu20.04.1*%
%TF.CreationDate,2021-09-09T23:45:53+08:00*%
%TF.ProjectId,di-mipi-lcd,64692d6d-6970-4692-9d6c-63642e6b6963,rev?*%
%TF.SameCoordinates,Original*%
%TF.FileFunction,Copper,L2,Bot*%
%TF.FilePolarity,Positive*%
%FSLAX46Y46*%
G04 Gerber Fmt 4.6, Leading zero omitted, Abs format (unit mm)*
G04 Created by KiCad (PCBNEW 5.99.0-unknown-ad1ee958b0~131~ubuntu20.04.1) date 2021-09-09 23:45:53*
%MOMM*%
%LPD*%
G01*
G04 APERTURE LIST*
%TA.AperFunction,ViaPad*%
%ADD10C,0.800000*%
%TD*%
%TA.AperFunction,Conductor*%
%ADD11C,0.250000*%
%TD*%
%TA.AperFunction,Conductor*%
%ADD12C,0.200000*%
%TD*%
G04 APERTURE END LIST*
D10*
%TO.N,GND*%
X134000000Y-123000000D03*
X134000000Y-105000000D03*
X150000000Y-134000000D03*
X156000000Y-117000000D03*
X149000000Y-105000000D03*
X151000000Y-101000000D03*
X147000000Y-105000000D03*
X137000000Y-121000000D03*
X156000000Y-115000000D03*
X134000000Y-109000000D03*
X137000000Y-123000000D03*
X147000000Y-132000000D03*
X134000000Y-111000000D03*
X134000000Y-117000000D03*
X147500000Y-122750000D03*
X156000000Y-123000000D03*
X156000000Y-113000000D03*
X147000000Y-134000000D03*
X156000000Y-119000000D03*
X134000000Y-121000000D03*
X134000000Y-131000000D03*
X137000000Y-119000000D03*
X151000000Y-103000000D03*
X151000000Y-105000000D03*
X150000000Y-132000000D03*
X134000000Y-119000000D03*
X134000000Y-103000000D03*
X156000000Y-111000000D03*
X156000000Y-121000000D03*
X137000000Y-125000000D03*
X134000000Y-107000000D03*
X143000000Y-134000000D03*
X134000000Y-125000000D03*
X137000000Y-117000000D03*
%TO.N,+3V3*%
X140500000Y-133250000D03*
X139250000Y-104000000D03*
X139750000Y-100000000D03*
X140500000Y-120750000D03*
%TO.N,/DSI-RST*%
X141750000Y-106000000D03*
X150500000Y-116250000D03*
%TO.N,/DSI-CKP*%
X149250000Y-107000000D03*
X150500000Y-110250000D03*
%TO.N,/DSI-DP0*%
X151250000Y-112750000D03*
X149250000Y-111250000D03*
%TO.N,/BL-PWM*%
X140500000Y-113500000D03*
X141000000Y-103000000D03*
%TO.N,/TP-SDA*%
X148000000Y-127000000D03*
X150000000Y-127000000D03*
%TO.N,/TP-RST*%
X148000000Y-125000000D03*
X152000000Y-125000000D03*
%TD*%
D11*
%TO.N,+3V3*%
X140500000Y-133250000D02*
X140500000Y-120750000D01*
X139250000Y-119500000D02*
X140500000Y-120750000D01*
X139250000Y-100500000D02*
X139750000Y-100000000D01*
X139250000Y-104000000D02*
X139250000Y-100500000D01*
X139250000Y-104000000D02*
X139250000Y-119500000D01*
%TO.N,/DSI-RST*%
X141750000Y-112000000D02*
X143250000Y-113500000D01*
X141750000Y-106000000D02*
X141750000Y-112000000D01*
X149500000Y-113500000D02*
X150500000Y-114500000D01*
X143250000Y-113500000D02*
X149500000Y-113500000D01*
X150500000Y-114500000D02*
X150500000Y-116250000D01*
D12*
%TO.N,/DSI-CKP*%
X149750000Y-107000000D02*
X150500000Y-107750000D01*
X150500000Y-107750000D02*
X150500000Y-110250000D01*
X149250000Y-107000000D02*
X149750000Y-107000000D01*
%TO.N,/DSI-DP0*%
X149250000Y-111250000D02*
X150750000Y-112750000D01*
X150750000Y-112750000D02*
X151250000Y-112750000D01*
D11*
%TO.N,/BL-PWM*%
X140500000Y-103500000D02*
X141000000Y-103000000D01*
X140500000Y-113500000D02*
X140500000Y-103500000D01*
%TO.N,/TP-SDA*%
X148000000Y-127000000D02*
X150000000Y-127000000D01*
%TO.N,/TP-RST*%
X148000000Y-125000000D02*
X152000000Y-125000000D01*
%TD*%
%TA.AperFunction,Conductor*%
%TO.N,GND*%
G36*
X149970057Y-98509500D02*
G01*
X149984858Y-98511805D01*
X149984861Y-98511805D01*
X149993730Y-98513186D01*
X150010899Y-98510941D01*
X150034839Y-98510108D01*
X150292770Y-98525710D01*
X150307874Y-98527544D01*
X150378648Y-98540514D01*
X150588879Y-98579040D01*
X150603641Y-98582678D01*
X150876408Y-98667675D01*
X150890627Y-98673069D01*
X151151140Y-98790316D01*
X151164609Y-98797385D01*
X151409095Y-98945182D01*
X151421617Y-98953825D01*
X151646507Y-99130016D01*
X151657895Y-99140106D01*
X151859894Y-99342105D01*
X151869984Y-99353493D01*
X152046175Y-99578383D01*
X152054818Y-99590905D01*
X152202615Y-99835391D01*
X152209684Y-99848860D01*
X152280661Y-100006565D01*
X152326930Y-100109370D01*
X152332325Y-100123592D01*
X152388314Y-100303266D01*
X152417321Y-100396353D01*
X152420960Y-100411121D01*
X152443812Y-100535819D01*
X152472456Y-100692126D01*
X152474290Y-100707230D01*
X152489455Y-100957929D01*
X152488198Y-100984639D01*
X152488195Y-100984859D01*
X152486814Y-100993730D01*
X152487978Y-101002632D01*
X152487978Y-101002635D01*
X152490936Y-101025251D01*
X152492000Y-101041589D01*
X152492000Y-101946793D01*
X152490254Y-101967697D01*
X152486929Y-101987461D01*
X152486776Y-102000000D01*
X152487467Y-102004828D01*
X152487475Y-102004947D01*
X152488575Y-102016417D01*
X152504681Y-102344259D01*
X152555256Y-102685202D01*
X152556006Y-102688196D01*
X152637467Y-103013406D01*
X152639005Y-103019547D01*
X152640042Y-103022446D01*
X152640045Y-103022455D01*
X152676622Y-103124679D01*
X152755122Y-103344073D01*
X152756438Y-103346856D01*
X152756442Y-103346865D01*
X152892592Y-103634729D01*
X152902489Y-103655654D01*
X152904072Y-103658295D01*
X153078098Y-103948641D01*
X153078104Y-103948650D01*
X153079687Y-103951291D01*
X153081530Y-103953776D01*
X153251805Y-104183365D01*
X153285009Y-104228136D01*
X153516478Y-104483522D01*
X153771864Y-104714991D01*
X153774347Y-104716832D01*
X153774350Y-104716835D01*
X153963905Y-104857418D01*
X154048709Y-104920313D01*
X154051350Y-104921896D01*
X154051359Y-104921902D01*
X154198254Y-105009947D01*
X154344346Y-105097511D01*
X154347125Y-105098825D01*
X154347128Y-105098827D01*
X154653135Y-105243558D01*
X154653144Y-105243562D01*
X154655927Y-105244878D01*
X154818190Y-105302937D01*
X154977545Y-105359955D01*
X154977554Y-105359958D01*
X154980453Y-105360995D01*
X154983449Y-105361745D01*
X154983454Y-105361747D01*
X155269644Y-105433434D01*
X155314798Y-105444744D01*
X155655741Y-105495319D01*
X155658827Y-105495471D01*
X155658831Y-105495471D01*
X155967828Y-105510651D01*
X155982544Y-105512244D01*
X155987461Y-105513071D01*
X155993959Y-105513150D01*
X155995141Y-105513165D01*
X155995145Y-105513165D01*
X156000000Y-105513224D01*
X156027588Y-105509273D01*
X156045451Y-105508000D01*
X157950673Y-105508000D01*
X157970057Y-105509500D01*
X157984858Y-105511805D01*
X157984862Y-105511805D01*
X157993731Y-105513186D01*
X158002633Y-105512022D01*
X158002637Y-105512022D01*
X158002733Y-105512009D01*
X158033170Y-105511738D01*
X158095375Y-105518746D01*
X158122882Y-105525024D01*
X158200071Y-105552034D01*
X158225491Y-105564276D01*
X158294738Y-105607787D01*
X158316797Y-105625379D01*
X158374621Y-105683203D01*
X158392213Y-105705262D01*
X158435724Y-105774509D01*
X158447966Y-105799930D01*
X158474975Y-105877117D01*
X158481254Y-105904624D01*
X158487522Y-105960251D01*
X158488305Y-105975897D01*
X158488196Y-105984855D01*
X158486814Y-105993729D01*
X158488493Y-106006565D01*
X158490936Y-106025250D01*
X158492000Y-106041588D01*
X158492000Y-127950673D01*
X158490500Y-127970057D01*
X158488195Y-127984858D01*
X158488195Y-127984862D01*
X158486814Y-127993731D01*
X158487978Y-128002633D01*
X158487978Y-128002637D01*
X158487991Y-128002733D01*
X158488262Y-128033170D01*
X158481254Y-128095375D01*
X158474975Y-128122885D01*
X158447966Y-128200071D01*
X158435724Y-128225491D01*
X158392213Y-128294738D01*
X158374621Y-128316797D01*
X158316797Y-128374621D01*
X158294738Y-128392213D01*
X158225491Y-128435724D01*
X158200070Y-128447966D01*
X158122883Y-128474975D01*
X158095376Y-128481254D01*
X158071428Y-128483952D01*
X158039744Y-128487522D01*
X158024103Y-128488305D01*
X158015145Y-128488196D01*
X158006271Y-128486814D01*
X157974750Y-128490936D01*
X157958412Y-128492000D01*
X156053207Y-128492000D01*
X156032303Y-128490254D01*
X156027304Y-128489413D01*
X156012539Y-128486929D01*
X156006419Y-128486854D01*
X156004867Y-128486835D01*
X156004862Y-128486835D01*
X156000000Y-128486776D01*
X155995172Y-128487467D01*
X155995053Y-128487475D01*
X155983583Y-128488575D01*
X155658831Y-128504529D01*
X155658827Y-128504529D01*
X155655741Y-128504681D01*
X155314798Y-128555256D01*
X155311803Y-128556006D01*
X155311804Y-128556006D01*
X154983454Y-128638253D01*
X154983449Y-128638255D01*
X154980453Y-128639005D01*
X154977554Y-128640042D01*
X154977545Y-128640045D01*
X154818190Y-128697063D01*
X154655927Y-128755122D01*
X154653144Y-128756438D01*
X154653135Y-128756442D01*
X154347128Y-128901173D01*
X154344346Y-128902489D01*
X154341704Y-128904072D01*
X154341705Y-128904072D01*
X154051359Y-129078098D01*
X154051350Y-129078104D01*
X154048709Y-129079687D01*
X154046224Y-129081530D01*
X153789606Y-129271851D01*
X153771864Y-129285009D01*
X153516478Y-129516478D01*
X153285009Y-129771864D01*
X153079687Y-130048709D01*
X153078104Y-130051350D01*
X153078098Y-130051359D01*
X152915440Y-130322739D01*
X152902489Y-130344346D01*
X152901175Y-130347125D01*
X152901173Y-130347128D01*
X152756442Y-130653135D01*
X152756438Y-130653144D01*
X152755122Y-130655927D01*
X152639005Y-130980453D01*
X152555256Y-131314798D01*
X152504681Y-131655741D01*
X152504529Y-131658827D01*
X152504529Y-131658831D01*
X152489349Y-131967828D01*
X152487756Y-131982544D01*
X152486929Y-131987461D01*
X152486776Y-132000000D01*
X152487466Y-132004815D01*
X152490727Y-132027588D01*
X152492000Y-132045451D01*
X152492000Y-132950672D01*
X152490500Y-132970056D01*
X152486814Y-132993730D01*
X152489059Y-133010897D01*
X152489892Y-133034839D01*
X152474290Y-133292770D01*
X152472456Y-133307874D01*
X152420962Y-133588873D01*
X152417322Y-133603641D01*
X152332326Y-133876404D01*
X152326931Y-133890627D01*
X152257993Y-134043803D01*
X152209686Y-134151136D01*
X152202615Y-134164609D01*
X152054818Y-134409095D01*
X152046175Y-134421617D01*
X151869984Y-134646507D01*
X151859894Y-134657895D01*
X151657895Y-134859894D01*
X151646507Y-134869984D01*
X151421617Y-135046175D01*
X151409095Y-135054818D01*
X151164609Y-135202615D01*
X151151140Y-135209684D01*
X150890630Y-135326930D01*
X150876408Y-135332325D01*
X150603641Y-135417322D01*
X150588879Y-135420960D01*
X150378648Y-135459486D01*
X150307874Y-135472456D01*
X150292770Y-135474290D01*
X150042071Y-135489455D01*
X150015361Y-135488198D01*
X150015141Y-135488195D01*
X150006270Y-135486814D01*
X149997368Y-135487978D01*
X149997365Y-135487978D01*
X149974749Y-135490936D01*
X149958411Y-135492000D01*
X132049327Y-135492000D01*
X132029943Y-135490500D01*
X132015142Y-135488195D01*
X132015138Y-135488195D01*
X132006269Y-135486814D01*
X131997367Y-135487978D01*
X131997363Y-135487978D01*
X131997267Y-135487991D01*
X131966830Y-135488262D01*
X131904625Y-135481254D01*
X131877118Y-135474976D01*
X131799928Y-135447966D01*
X131774509Y-135435724D01*
X131705262Y-135392213D01*
X131683203Y-135374621D01*
X131625379Y-135316797D01*
X131607787Y-135294738D01*
X131564276Y-135225491D01*
X131552034Y-135200070D01*
X131525025Y-135122883D01*
X131518746Y-135095376D01*
X131512478Y-135039749D01*
X131511695Y-135024103D01*
X131511804Y-135015145D01*
X131513186Y-135006271D01*
X131509064Y-134974749D01*
X131508000Y-134958412D01*
X131508000Y-104000000D01*
X138336496Y-104000000D01*
X138356458Y-104189928D01*
X138415473Y-104371556D01*
X138510960Y-104536944D01*
X138584137Y-104618215D01*
X138614853Y-104682221D01*
X138616500Y-104702524D01*
X138616500Y-119421233D01*
X138615973Y-119432416D01*
X138614298Y-119439909D01*
X138614547Y-119447835D01*
X138614547Y-119447836D01*
X138616438Y-119507986D01*
X138616500Y-119511945D01*
X138616500Y-119539856D01*
X138616997Y-119543790D01*
X138616997Y-119543791D01*
X138617005Y-119543856D01*
X138617938Y-119555693D01*
X138619327Y-119599889D01*
X138624978Y-119619339D01*
X138628987Y-119638700D01*
X138631526Y-119658797D01*
X138634445Y-119666168D01*
X138634445Y-119666170D01*
X138647804Y-119699912D01*
X138651649Y-119711142D01*
X138663982Y-119753593D01*
X138668015Y-119760412D01*
X138668017Y-119760417D01*
X138674293Y-119771028D01*
X138682988Y-119788776D01*
X138690448Y-119807617D01*
X138695110Y-119814033D01*
X138695110Y-119814034D01*
X138716436Y-119843387D01*
X138722952Y-119853307D01*
X138741040Y-119883891D01*
X138745458Y-119891362D01*
X138759779Y-119905683D01*
X138772619Y-119920716D01*
X138784528Y-119937107D01*
X138815541Y-119962763D01*
X138818605Y-119965298D01*
X138827384Y-119973288D01*
X139552878Y-120698782D01*
X139586904Y-120761094D01*
X139589092Y-120774703D01*
X139606458Y-120939928D01*
X139665473Y-121121556D01*
X139760960Y-121286944D01*
X139834137Y-121368215D01*
X139864853Y-121432221D01*
X139866500Y-121452524D01*
X139866500Y-132547476D01*
X139846498Y-132615597D01*
X139834142Y-132631779D01*
X139760960Y-132713056D01*
X139665473Y-132878444D01*
X139606458Y-133060072D01*
X139586496Y-133250000D01*
X139606458Y-133439928D01*
X139665473Y-133621556D01*
X139760960Y-133786944D01*
X139888747Y-133928866D01*
X140043248Y-134041118D01*
X140049276Y-134043802D01*
X140049278Y-134043803D01*
X140211681Y-134116109D01*
X140217712Y-134118794D01*
X140311113Y-134138647D01*
X140398056Y-134157128D01*
X140398061Y-134157128D01*
X140404513Y-134158500D01*
X140595487Y-134158500D01*
X140601939Y-134157128D01*
X140601944Y-134157128D01*
X140688887Y-134138647D01*
X140782288Y-134118794D01*
X140788319Y-134116109D01*
X140950722Y-134043803D01*
X140950724Y-134043802D01*
X140956752Y-134041118D01*
X141111253Y-133928866D01*
X141239040Y-133786944D01*
X141334527Y-133621556D01*
X141393542Y-133439928D01*
X141413504Y-133250000D01*
X141393542Y-133060072D01*
X141334527Y-132878444D01*
X141239040Y-132713056D01*
X141165863Y-132631785D01*
X141135147Y-132567779D01*
X141133500Y-132547476D01*
X141133500Y-125000000D01*
X147086496Y-125000000D01*
X147106458Y-125189928D01*
X147165473Y-125371556D01*
X147260960Y-125536944D01*
X147388747Y-125678866D01*
X147543248Y-125791118D01*
X147549276Y-125793802D01*
X147549278Y-125793803D01*
X147711681Y-125866109D01*
X147717712Y-125868794D01*
X147755156Y-125876753D01*
X147817629Y-125910482D01*
X147851951Y-125972631D01*
X147847223Y-126043470D01*
X147804947Y-126100508D01*
X147755156Y-126123247D01*
X147717712Y-126131206D01*
X147711682Y-126133891D01*
X147711681Y-126133891D01*
X147549278Y-126206197D01*
X147549276Y-126206198D01*
X147543248Y-126208882D01*
X147388747Y-126321134D01*
X147260960Y-126463056D01*
X147165473Y-126628444D01*
X147106458Y-126810072D01*
X147086496Y-127000000D01*
X147106458Y-127189928D01*
X147165473Y-127371556D01*
X147260960Y-127536944D01*
X147388747Y-127678866D01*
X147543248Y-127791118D01*
X147549276Y-127793802D01*
X147549278Y-127793803D01*
X147711681Y-127866109D01*
X147717712Y-127868794D01*
X147811112Y-127888647D01*
X147898056Y-127907128D01*
X147898061Y-127907128D01*
X147904513Y-127908500D01*
X148095487Y-127908500D01*
X148101939Y-127907128D01*
X148101944Y-127907128D01*
X148188888Y-127888647D01*
X148282288Y-127868794D01*
X148288319Y-127866109D01*
X148450722Y-127793803D01*
X148450724Y-127793802D01*
X148456752Y-127791118D01*
X148611253Y-127678866D01*
X148615668Y-127673963D01*
X148620580Y-127669540D01*
X148621705Y-127670789D01*
X148675014Y-127637949D01*
X148708200Y-127633500D01*
X149291800Y-127633500D01*
X149359921Y-127653502D01*
X149379147Y-127669843D01*
X149379420Y-127669540D01*
X149384332Y-127673963D01*
X149388747Y-127678866D01*
X149543248Y-127791118D01*
X149549276Y-127793802D01*
X149549278Y-127793803D01*
X149711681Y-127866109D01*
X149717712Y-127868794D01*
X149811112Y-127888647D01*
X149898056Y-127907128D01*
X149898061Y-127907128D01*
X149904513Y-127908500D01*
X150095487Y-127908500D01*
X150101939Y-127907128D01*
X150101944Y-127907128D01*
X150188888Y-127888647D01*
X150282288Y-127868794D01*
X150288319Y-127866109D01*
X150450722Y-127793803D01*
X150450724Y-127793802D01*
X150456752Y-127791118D01*
X150611253Y-127678866D01*
X150739040Y-127536944D01*
X150834527Y-127371556D01*
X150893542Y-127189928D01*
X150913504Y-127000000D01*
X150893542Y-126810072D01*
X150834527Y-126628444D01*
X150739040Y-126463056D01*
X150611253Y-126321134D01*
X150456752Y-126208882D01*
X150450724Y-126206198D01*
X150450722Y-126206197D01*
X150288319Y-126133891D01*
X150288318Y-126133891D01*
X150282288Y-126131206D01*
X150188887Y-126111353D01*
X150101944Y-126092872D01*
X150101939Y-126092872D01*
X150095487Y-126091500D01*
X149904513Y-126091500D01*
X149898061Y-126092872D01*
X149898056Y-126092872D01*
X149811113Y-126111353D01*
X149717712Y-126131206D01*
X149711682Y-126133891D01*
X149711681Y-126133891D01*
X149549278Y-126206197D01*
X149549276Y-126206198D01*
X149543248Y-126208882D01*
X149388747Y-126321134D01*
X149384332Y-126326037D01*
X149379420Y-126330460D01*
X149378295Y-126329211D01*
X149324986Y-126362051D01*
X149291800Y-126366500D01*
X148708200Y-126366500D01*
X148640079Y-126346498D01*
X148620853Y-126330157D01*
X148620580Y-126330460D01*
X148615668Y-126326037D01*
X148611253Y-126321134D01*
X148456752Y-126208882D01*
X148450724Y-126206198D01*
X148450722Y-126206197D01*
X148288319Y-126133891D01*
X148288318Y-126133891D01*
X148282288Y-126131206D01*
X148244844Y-126123247D01*
X148182371Y-126089518D01*
X148148049Y-126027369D01*
X148152777Y-125956530D01*
X148195053Y-125899492D01*
X148244844Y-125876753D01*
X148282288Y-125868794D01*
X148288319Y-125866109D01*
X148450722Y-125793803D01*
X148450724Y-125793802D01*
X148456752Y-125791118D01*
X148611253Y-125678866D01*
X148615668Y-125673963D01*
X148620580Y-125669540D01*
X148621705Y-125670789D01*
X148675014Y-125637949D01*
X148708200Y-125633500D01*
X151291800Y-125633500D01*
X151359921Y-125653502D01*
X151379147Y-125669843D01*
X151379420Y-125669540D01*
X151384332Y-125673963D01*
X151388747Y-125678866D01*
X151543248Y-125791118D01*
X151549276Y-125793802D01*
X151549278Y-125793803D01*
X151711681Y-125866109D01*
X151717712Y-125868794D01*
X151811112Y-125888647D01*
X151898056Y-125907128D01*
X151898061Y-125907128D01*
X151904513Y-125908500D01*
X152095487Y-125908500D01*
X152101939Y-125907128D01*
X152101944Y-125907128D01*
X152188888Y-125888647D01*
X152282288Y-125868794D01*
X152288319Y-125866109D01*
X152450722Y-125793803D01*
X152450724Y-125793802D01*
X152456752Y-125791118D01*
X152611253Y-125678866D01*
X152739040Y-125536944D01*
X152834527Y-125371556D01*
X152893542Y-125189928D01*
X152913504Y-125000000D01*
X152893542Y-124810072D01*
X152834527Y-124628444D01*
X152739040Y-124463056D01*
X152611253Y-124321134D01*
X152456752Y-124208882D01*
X152450724Y-124206198D01*
X152450722Y-124206197D01*
X152288319Y-124133891D01*
X152288318Y-124133891D01*
X152282288Y-124131206D01*
X152188887Y-124111353D01*
X152101944Y-124092872D01*
X152101939Y-124092872D01*
X152095487Y-124091500D01*
X151904513Y-124091500D01*
X151898061Y-124092872D01*
X151898056Y-124092872D01*
X151811113Y-124111353D01*
X151717712Y-124131206D01*
X151711682Y-124133891D01*
X151711681Y-124133891D01*
X151549278Y-124206197D01*
X151549276Y-124206198D01*
X151543248Y-124208882D01*
X151388747Y-124321134D01*
X151384332Y-124326037D01*
X151379420Y-124330460D01*
X151378295Y-124329211D01*
X151324986Y-124362051D01*
X151291800Y-124366500D01*
X148708200Y-124366500D01*
X148640079Y-124346498D01*
X148620853Y-124330157D01*
X148620580Y-124330460D01*
X148615668Y-124326037D01*
X148611253Y-124321134D01*
X148456752Y-124208882D01*
X148450724Y-124206198D01*
X148450722Y-124206197D01*
X148288319Y-124133891D01*
X148288318Y-124133891D01*
X148282288Y-124131206D01*
X148188887Y-124111353D01*
X148101944Y-124092872D01*
X148101939Y-124092872D01*
X148095487Y-124091500D01*
X147904513Y-124091500D01*
X147898061Y-124092872D01*
X147898056Y-124092872D01*
X147811113Y-124111353D01*
X147717712Y-124131206D01*
X147711682Y-124133891D01*
X147711681Y-124133891D01*
X147549278Y-124206197D01*
X147549276Y-124206198D01*
X147543248Y-124208882D01*
X147388747Y-124321134D01*
X147260960Y-124463056D01*
X147165473Y-124628444D01*
X147106458Y-124810072D01*
X147086496Y-125000000D01*
X141133500Y-125000000D01*
X141133500Y-121452524D01*
X141153502Y-121384403D01*
X141165858Y-121368221D01*
X141239040Y-121286944D01*
X141334527Y-121121556D01*
X141393542Y-120939928D01*
X141413504Y-120750000D01*
X141393542Y-120560072D01*
X141334527Y-120378444D01*
X141239040Y-120213056D01*
X141111253Y-120071134D01*
X140956752Y-119958882D01*
X140950724Y-119956198D01*
X140950722Y-119956197D01*
X140788319Y-119883891D01*
X140788318Y-119883891D01*
X140782288Y-119881206D01*
X140688887Y-119861353D01*
X140601944Y-119842872D01*
X140601939Y-119842872D01*
X140595487Y-119841500D01*
X140539595Y-119841500D01*
X140471474Y-119821498D01*
X140450499Y-119804595D01*
X139920404Y-119274499D01*
X139886379Y-119212187D01*
X139883500Y-119185404D01*
X139883500Y-114414017D01*
X139903502Y-114345896D01*
X139957158Y-114299403D01*
X140027432Y-114289299D01*
X140060749Y-114298910D01*
X140063418Y-114300098D01*
X140217712Y-114368794D01*
X140311113Y-114388647D01*
X140398056Y-114407128D01*
X140398061Y-114407128D01*
X140404513Y-114408500D01*
X140595487Y-114408500D01*
X140601939Y-114407128D01*
X140601944Y-114407128D01*
X140688887Y-114388647D01*
X140782288Y-114368794D01*
X140860817Y-114333831D01*
X140950722Y-114293803D01*
X140950724Y-114293802D01*
X140956752Y-114291118D01*
X141111253Y-114178866D01*
X141147852Y-114138219D01*
X141234621Y-114041852D01*
X141234622Y-114041851D01*
X141239040Y-114036944D01*
X141314053Y-113907018D01*
X141331223Y-113877279D01*
X141331224Y-113877278D01*
X141334527Y-113871556D01*
X141393542Y-113689928D01*
X141396990Y-113657128D01*
X141412814Y-113506565D01*
X141413504Y-113500000D01*
X141406028Y-113428866D01*
X141394232Y-113316635D01*
X141394232Y-113316633D01*
X141393542Y-113310072D01*
X141334527Y-113128444D01*
X141239040Y-112963056D01*
X141165863Y-112881785D01*
X141135147Y-112817779D01*
X141133500Y-112797476D01*
X141133500Y-112583594D01*
X141153502Y-112515473D01*
X141207158Y-112468980D01*
X141277432Y-112458876D01*
X141342012Y-112488370D01*
X141348595Y-112494499D01*
X142746343Y-113892247D01*
X142753887Y-113900537D01*
X142758000Y-113907018D01*
X142763777Y-113912443D01*
X142807667Y-113953658D01*
X142810509Y-113956413D01*
X142830230Y-113976134D01*
X142833425Y-113978612D01*
X142842447Y-113986318D01*
X142874679Y-114016586D01*
X142881628Y-114020406D01*
X142892432Y-114026346D01*
X142908956Y-114037199D01*
X142924959Y-114049613D01*
X142965543Y-114067176D01*
X142976173Y-114072383D01*
X143014940Y-114093695D01*
X143022617Y-114095666D01*
X143022622Y-114095668D01*
X143034558Y-114098732D01*
X143053266Y-114105137D01*
X143071855Y-114113181D01*
X143079680Y-114114420D01*
X143079682Y-114114421D01*
X143115519Y-114120097D01*
X143127140Y-114122504D01*
X143162289Y-114131528D01*
X143169970Y-114133500D01*
X143190231Y-114133500D01*
X143209940Y-114135051D01*
X143229943Y-114138219D01*
X143237835Y-114137473D01*
X143243062Y-114136979D01*
X143273954Y-114134059D01*
X143285811Y-114133500D01*
X149185406Y-114133500D01*
X149253527Y-114153502D01*
X149274501Y-114170405D01*
X149829595Y-114725499D01*
X149863621Y-114787811D01*
X149866500Y-114814594D01*
X149866500Y-115547476D01*
X149846498Y-115615597D01*
X149834142Y-115631779D01*
X149760960Y-115713056D01*
X149665473Y-115878444D01*
X149606458Y-116060072D01*
X149586496Y-116250000D01*
X149606458Y-116439928D01*
X149665473Y-116621556D01*
X149760960Y-116786944D01*
X149888747Y-116928866D01*
X150043248Y-117041118D01*
X150049276Y-117043802D01*
X150049278Y-117043803D01*
X150211681Y-117116109D01*
X150217712Y-117118794D01*
X150311112Y-117138647D01*
X150398056Y-117157128D01*
X150398061Y-117157128D01*
X150404513Y-117158500D01*
X150595487Y-117158500D01*
X150601939Y-117157128D01*
X150601944Y-117157128D01*
X150688888Y-117138647D01*
X150782288Y-117118794D01*
X150788319Y-117116109D01*
X150950722Y-117043803D01*
X150950724Y-117043802D01*
X150956752Y-117041118D01*
X151111253Y-116928866D01*
X151239040Y-116786944D01*
X151334527Y-116621556D01*
X151393542Y-116439928D01*
X151413504Y-116250000D01*
X151393542Y-116060072D01*
X151334527Y-115878444D01*
X151239040Y-115713056D01*
X151165863Y-115631785D01*
X151135147Y-115567779D01*
X151133500Y-115547476D01*
X151133500Y-114578768D01*
X151134027Y-114567585D01*
X151135702Y-114560092D01*
X151133562Y-114492001D01*
X151133500Y-114488044D01*
X151133500Y-114460144D01*
X151132996Y-114456153D01*
X151132063Y-114444311D01*
X151130923Y-114408036D01*
X151130674Y-114400111D01*
X151125021Y-114380652D01*
X151121012Y-114361293D01*
X151120846Y-114359983D01*
X151118474Y-114341203D01*
X151115558Y-114333837D01*
X151115556Y-114333831D01*
X151102200Y-114300098D01*
X151098355Y-114288868D01*
X151088230Y-114254017D01*
X151088230Y-114254016D01*
X151086019Y-114246407D01*
X151075705Y-114228966D01*
X151067008Y-114211213D01*
X151062472Y-114199758D01*
X151059552Y-114192383D01*
X151033563Y-114156612D01*
X151027047Y-114146692D01*
X151021303Y-114136979D01*
X151004542Y-114108638D01*
X150990221Y-114094317D01*
X150977380Y-114079283D01*
X150970131Y-114069306D01*
X150965472Y-114062893D01*
X150959368Y-114057843D01*
X150959363Y-114057838D01*
X150931402Y-114034707D01*
X150922622Y-114026717D01*
X150622640Y-113726735D01*
X150588614Y-113664423D01*
X150593679Y-113593608D01*
X150636226Y-113536772D01*
X150702746Y-113511961D01*
X150772120Y-113527052D01*
X150785794Y-113535703D01*
X150787902Y-113537235D01*
X150787909Y-113537239D01*
X150793248Y-113541118D01*
X150799276Y-113543802D01*
X150799278Y-113543803D01*
X150911143Y-113593608D01*
X150967712Y-113618794D01*
X151061112Y-113638647D01*
X151148056Y-113657128D01*
X151148061Y-113657128D01*
X151154513Y-113658500D01*
X151345487Y-113658500D01*
X151351939Y-113657128D01*
X151351944Y-113657128D01*
X151438888Y-113638647D01*
X151532288Y-113618794D01*
X151588857Y-113593608D01*
X151700722Y-113543803D01*
X151700724Y-113543802D01*
X151706752Y-113541118D01*
X151712097Y-113537235D01*
X151772382Y-113493435D01*
X151861253Y-113428866D01*
X151962306Y-113316635D01*
X151984621Y-113291852D01*
X151984622Y-113291851D01*
X151989040Y-113286944D01*
X152084527Y-113121556D01*
X152143542Y-112939928D01*
X152144537Y-112930467D01*
X152162814Y-112756565D01*
X152163504Y-112750000D01*
X152143542Y-112560072D01*
X152084527Y-112378444D01*
X151989040Y-112213056D01*
X151982175Y-112205431D01*
X151865675Y-112076045D01*
X151865674Y-112076044D01*
X151861253Y-112071134D01*
X151706752Y-111958882D01*
X151700724Y-111956198D01*
X151700722Y-111956197D01*
X151538319Y-111883891D01*
X151538318Y-111883891D01*
X151532288Y-111881206D01*
X151438888Y-111861353D01*
X151351944Y-111842872D01*
X151351939Y-111842872D01*
X151345487Y-111841500D01*
X151154513Y-111841500D01*
X151148061Y-111842872D01*
X151148056Y-111842872D01*
X151061113Y-111861353D01*
X150967712Y-111881206D01*
X150961682Y-111883891D01*
X150961681Y-111883891D01*
X150890475Y-111915594D01*
X150820108Y-111925028D01*
X150755811Y-111894922D01*
X150750131Y-111889582D01*
X150215781Y-111355232D01*
X150181755Y-111292920D01*
X150186820Y-111222105D01*
X150229367Y-111165269D01*
X150295887Y-111140458D01*
X150331073Y-111142890D01*
X150398056Y-111157128D01*
X150398061Y-111157128D01*
X150404513Y-111158500D01*
X150595487Y-111158500D01*
X150601939Y-111157128D01*
X150601944Y-111157128D01*
X150688888Y-111138647D01*
X150782288Y-111118794D01*
X150899440Y-111066635D01*
X150950722Y-111043803D01*
X150950724Y-111043802D01*
X150956752Y-111041118D01*
X151111253Y-110928866D01*
X151239040Y-110786944D01*
X151334527Y-110621556D01*
X151393542Y-110439928D01*
X151413504Y-110250000D01*
X151393542Y-110060072D01*
X151334527Y-109878444D01*
X151239040Y-109713056D01*
X151140864Y-109604020D01*
X151110146Y-109540013D01*
X151108500Y-109519710D01*
X151108500Y-107798136D01*
X151109578Y-107781690D01*
X151112672Y-107758188D01*
X151113750Y-107750000D01*
X151108500Y-107710122D01*
X151108500Y-107710115D01*
X151092838Y-107591150D01*
X151031524Y-107443125D01*
X151031524Y-107443124D01*
X150958477Y-107347928D01*
X150958474Y-107347925D01*
X150933987Y-107316013D01*
X150927432Y-107310983D01*
X150908621Y-107296548D01*
X150896230Y-107285681D01*
X150214315Y-106603766D01*
X150203448Y-106591375D01*
X150189013Y-106572563D01*
X150183987Y-106566013D01*
X150152075Y-106541526D01*
X150152072Y-106541523D01*
X150056876Y-106468476D01*
X149982814Y-106437798D01*
X149937397Y-106405700D01*
X149865668Y-106326037D01*
X149865666Y-106326036D01*
X149861253Y-106321134D01*
X149706752Y-106208882D01*
X149700724Y-106206198D01*
X149700722Y-106206197D01*
X149538319Y-106133891D01*
X149538318Y-106133891D01*
X149532288Y-106131206D01*
X149438888Y-106111353D01*
X149351944Y-106092872D01*
X149351939Y-106092872D01*
X149345487Y-106091500D01*
X149154513Y-106091500D01*
X149148061Y-106092872D01*
X149148056Y-106092872D01*
X149061113Y-106111353D01*
X148967712Y-106131206D01*
X148961682Y-106133891D01*
X148961681Y-106133891D01*
X148799278Y-106206197D01*
X148799276Y-106206198D01*
X148793248Y-106208882D01*
X148638747Y-106321134D01*
X148634326Y-106326044D01*
X148634325Y-106326045D01*
X148562604Y-106405700D01*
X148510960Y-106463056D01*
X148415473Y-106628444D01*
X148356458Y-106810072D01*
X148336496Y-107000000D01*
X148356458Y-107189928D01*
X148415473Y-107371556D01*
X148510960Y-107536944D01*
X148638747Y-107678866D01*
X148681767Y-107710122D01*
X148780272Y-107781690D01*
X148793248Y-107791118D01*
X148799276Y-107793802D01*
X148799278Y-107793803D01*
X148936905Y-107855078D01*
X148967712Y-107868794D01*
X149061112Y-107888647D01*
X149148056Y-107907128D01*
X149148061Y-107907128D01*
X149154513Y-107908500D01*
X149345487Y-107908500D01*
X149351939Y-107907128D01*
X149351944Y-107907128D01*
X149438888Y-107888647D01*
X149532288Y-107868794D01*
X149609525Y-107834406D01*
X149679892Y-107824972D01*
X149744189Y-107855078D01*
X149749869Y-107860418D01*
X149854595Y-107965144D01*
X149888621Y-108027456D01*
X149891500Y-108054239D01*
X149891500Y-109519710D01*
X149871498Y-109587831D01*
X149859136Y-109604020D01*
X149760960Y-109713056D01*
X149665473Y-109878444D01*
X149606458Y-110060072D01*
X149586496Y-110250000D01*
X149583541Y-110249689D01*
X149567184Y-110305398D01*
X149513528Y-110351891D01*
X149443254Y-110361995D01*
X149434989Y-110360524D01*
X149351944Y-110342872D01*
X149351939Y-110342872D01*
X149345487Y-110341500D01*
X149154513Y-110341500D01*
X149148061Y-110342872D01*
X149148056Y-110342872D01*
X149065013Y-110360524D01*
X148967712Y-110381206D01*
X148961682Y-110383891D01*
X148961681Y-110383891D01*
X148799278Y-110456197D01*
X148799276Y-110456198D01*
X148793248Y-110458882D01*
X148638747Y-110571134D01*
X148510960Y-110713056D01*
X148415473Y-110878444D01*
X148356458Y-111060072D01*
X148355768Y-111066633D01*
X148355768Y-111066635D01*
X148346257Y-111157128D01*
X148336496Y-111250000D01*
X148356458Y-111439928D01*
X148415473Y-111621556D01*
X148510960Y-111786944D01*
X148515378Y-111791851D01*
X148515379Y-111791852D01*
X148608184Y-111894922D01*
X148638747Y-111928866D01*
X148793248Y-112041118D01*
X148799276Y-112043802D01*
X148799278Y-112043803D01*
X148961681Y-112116109D01*
X148967712Y-112118794D01*
X149061112Y-112138647D01*
X149148056Y-112157128D01*
X149148061Y-112157128D01*
X149154513Y-112158500D01*
X149245761Y-112158500D01*
X149313882Y-112178502D01*
X149334856Y-112195405D01*
X149824786Y-112685335D01*
X149858812Y-112747647D01*
X149853747Y-112818462D01*
X149811200Y-112875298D01*
X149744680Y-112900109D01*
X149693266Y-112891363D01*
X149693029Y-112892178D01*
X149685930Y-112890115D01*
X149685654Y-112890068D01*
X149678145Y-112886819D01*
X149670322Y-112885580D01*
X149670312Y-112885577D01*
X149634476Y-112879901D01*
X149622856Y-112877495D01*
X149587711Y-112868472D01*
X149587710Y-112868472D01*
X149580030Y-112866500D01*
X149559776Y-112866500D01*
X149540065Y-112864949D01*
X149527886Y-112863020D01*
X149520057Y-112861780D01*
X149512165Y-112862526D01*
X149476039Y-112865941D01*
X149464181Y-112866500D01*
X143564595Y-112866500D01*
X143496474Y-112846498D01*
X143475500Y-112829595D01*
X142420405Y-111774500D01*
X142386379Y-111712188D01*
X142383500Y-111685405D01*
X142383500Y-106702524D01*
X142403502Y-106634403D01*
X142415858Y-106618221D01*
X142489040Y-106536944D01*
X142584527Y-106371556D01*
X142643542Y-106189928D01*
X142663504Y-106000000D01*
X142643542Y-105810072D01*
X142584527Y-105628444D01*
X142553130Y-105574062D01*
X142521193Y-105518746D01*
X142489040Y-105463056D01*
X142407012Y-105371954D01*
X142365675Y-105326045D01*
X142365674Y-105326044D01*
X142361253Y-105321134D01*
X142262157Y-105249136D01*
X142212094Y-105212763D01*
X142212093Y-105212762D01*
X142206752Y-105208882D01*
X142200724Y-105206198D01*
X142200722Y-105206197D01*
X142038319Y-105133891D01*
X142038318Y-105133891D01*
X142032288Y-105131206D01*
X141938888Y-105111353D01*
X141851944Y-105092872D01*
X141851939Y-105092872D01*
X141845487Y-105091500D01*
X141654513Y-105091500D01*
X141648061Y-105092872D01*
X141648056Y-105092872D01*
X141561112Y-105111353D01*
X141467712Y-105131206D01*
X141461682Y-105133891D01*
X141461681Y-105133891D01*
X141310749Y-105201090D01*
X141240382Y-105210524D01*
X141176085Y-105180417D01*
X141138271Y-105120329D01*
X141133500Y-105085983D01*
X141133500Y-104002453D01*
X141153502Y-103934332D01*
X141207158Y-103887839D01*
X141233302Y-103879206D01*
X141282288Y-103868794D01*
X141399440Y-103816635D01*
X141450722Y-103793803D01*
X141450724Y-103793802D01*
X141456752Y-103791118D01*
X141611253Y-103678866D01*
X141739040Y-103536944D01*
X141834527Y-103371556D01*
X141893542Y-103189928D01*
X141913504Y-103000000D01*
X141893542Y-102810072D01*
X141834527Y-102628444D01*
X141739040Y-102463056D01*
X141611253Y-102321134D01*
X141456752Y-102208882D01*
X141450724Y-102206198D01*
X141450722Y-102206197D01*
X141288319Y-102133891D01*
X141288318Y-102133891D01*
X141282288Y-102131206D01*
X141188887Y-102111353D01*
X141101944Y-102092872D01*
X141101939Y-102092872D01*
X141095487Y-102091500D01*
X140904513Y-102091500D01*
X140898061Y-102092872D01*
X140898056Y-102092872D01*
X140811112Y-102111353D01*
X140717712Y-102131206D01*
X140711682Y-102133891D01*
X140711681Y-102133891D01*
X140549278Y-102206197D01*
X140549276Y-102206198D01*
X140543248Y-102208882D01*
X140388747Y-102321134D01*
X140260960Y-102463056D01*
X140165473Y-102628444D01*
X140163431Y-102634729D01*
X140129333Y-102739671D01*
X140089259Y-102798277D01*
X140023863Y-102825914D01*
X139953906Y-102813807D01*
X139901600Y-102765801D01*
X139883500Y-102700735D01*
X139883500Y-101002453D01*
X139903502Y-100934332D01*
X139957158Y-100887839D01*
X139983302Y-100879206D01*
X140032288Y-100868794D01*
X140038319Y-100866109D01*
X140200722Y-100793803D01*
X140200724Y-100793802D01*
X140206752Y-100791118D01*
X140361253Y-100678866D01*
X140489040Y-100536944D01*
X140566011Y-100403626D01*
X140581223Y-100377279D01*
X140581224Y-100377278D01*
X140584527Y-100371556D01*
X140643542Y-100189928D01*
X140654737Y-100083419D01*
X140662814Y-100006565D01*
X140663504Y-100000000D01*
X140643542Y-99810072D01*
X140584527Y-99628444D01*
X140489040Y-99463056D01*
X140361253Y-99321134D01*
X140206752Y-99208882D01*
X140200724Y-99206198D01*
X140200722Y-99206197D01*
X140038319Y-99133891D01*
X140038318Y-99133891D01*
X140032288Y-99131206D01*
X139938888Y-99111353D01*
X139851944Y-99092872D01*
X139851939Y-99092872D01*
X139845487Y-99091500D01*
X139654513Y-99091500D01*
X139648061Y-99092872D01*
X139648056Y-99092872D01*
X139561112Y-99111353D01*
X139467712Y-99131206D01*
X139461682Y-99133891D01*
X139461681Y-99133891D01*
X139299278Y-99206197D01*
X139299276Y-99206198D01*
X139293248Y-99208882D01*
X139138747Y-99321134D01*
X139010960Y-99463056D01*
X138915473Y-99628444D01*
X138856458Y-99810072D01*
X138855769Y-99816631D01*
X138855768Y-99816634D01*
X138839164Y-99974615D01*
X138812151Y-100040271D01*
X138805705Y-100047695D01*
X138796356Y-100057651D01*
X138793600Y-100060495D01*
X138773865Y-100080230D01*
X138771385Y-100083427D01*
X138763682Y-100092447D01*
X138733414Y-100124679D01*
X138729595Y-100131625D01*
X138729593Y-100131628D01*
X138723652Y-100142434D01*
X138712801Y-100158953D01*
X138700386Y-100174959D01*
X138697241Y-100182228D01*
X138697238Y-100182232D01*
X138682826Y-100215537D01*
X138677609Y-100226187D01*
X138656305Y-100264940D01*
X138654334Y-100272615D01*
X138654334Y-100272616D01*
X138651267Y-100284562D01*
X138644863Y-100303266D01*
X138636819Y-100321855D01*
X138635580Y-100329678D01*
X138635577Y-100329688D01*
X138629901Y-100365524D01*
X138627495Y-100377144D01*
X138620696Y-100403626D01*
X138616500Y-100419970D01*
X138616500Y-100440224D01*
X138614949Y-100459934D01*
X138611780Y-100479943D01*
X138612526Y-100487835D01*
X138615941Y-100523961D01*
X138616500Y-100535819D01*
X138616500Y-103297476D01*
X138596498Y-103365597D01*
X138584142Y-103381779D01*
X138510960Y-103463056D01*
X138415473Y-103628444D01*
X138356458Y-103810072D01*
X138355768Y-103816633D01*
X138355768Y-103816635D01*
X138350568Y-103866109D01*
X138336496Y-104000000D01*
X131508000Y-104000000D01*
X131508000Y-99049327D01*
X131509500Y-99029943D01*
X131511805Y-99015142D01*
X131511805Y-99015138D01*
X131513186Y-99006269D01*
X131512022Y-98997367D01*
X131512022Y-98997363D01*
X131512009Y-98997267D01*
X131511738Y-98966830D01*
X131518746Y-98904625D01*
X131525025Y-98877115D01*
X131552034Y-98799929D01*
X131564276Y-98774509D01*
X131607787Y-98705262D01*
X131625379Y-98683203D01*
X131683203Y-98625379D01*
X131705262Y-98607787D01*
X131774509Y-98564276D01*
X131799930Y-98552034D01*
X131877117Y-98525025D01*
X131904624Y-98518746D01*
X131928572Y-98516048D01*
X131960256Y-98512478D01*
X131975897Y-98511695D01*
X131984855Y-98511804D01*
X131993729Y-98513186D01*
X132025251Y-98509064D01*
X132041588Y-98508000D01*
X149950672Y-98508000D01*
X149970057Y-98509500D01*
G37*
%TD.AperFunction*%
%TD*%
M02*
