%TF.GenerationSoftware,KiCad,Pcbnew,5.99.0-unknown-ad1ee958b0~131~ubuntu20.04.1*%
%TF.CreationDate,2021-09-09T23:45:53+08:00*%
%TF.ProjectId,di-mipi-lcd,64692d6d-6970-4692-9d6c-63642e6b6963,rev?*%
%TF.SameCoordinates,Original*%
%TF.FileFunction,Paste,Top*%
%TF.FilePolarity,Positive*%
%FSLAX46Y46*%
G04 Gerber Fmt 4.6, Leading zero omitted, Abs format (unit mm)*
G04 Created by KiCad (PCBNEW 5.99.0-unknown-ad1ee958b0~131~ubuntu20.04.1) date 2021-09-09 23:45:53*
%MOMM*%
%LPD*%
G01*
G04 APERTURE LIST*
%ADD10R,1.300000X0.300000*%
%ADD11R,2.200000X1.800000*%
%ADD12R,1.100000X0.300000*%
%ADD13R,3.100000X2.300000*%
G04 APERTURE END LIST*
D10*
%TO.C,J3*%
X137850000Y-129750000D03*
X137850000Y-130250000D03*
X137850000Y-130750000D03*
X137850000Y-131250000D03*
X137850000Y-131750000D03*
X137850000Y-132250000D03*
D11*
X134600000Y-127850000D03*
X134600000Y-134150000D03*
%TD*%
D12*
%TO.C,J2*%
X153650000Y-124250000D03*
X153650000Y-123750000D03*
X153650000Y-123250000D03*
X153650000Y-122750000D03*
X153650000Y-122250000D03*
X153650000Y-121750000D03*
X153650000Y-121250000D03*
X153650000Y-120750000D03*
X153650000Y-120250000D03*
X153650000Y-119750000D03*
X153650000Y-119250000D03*
X153650000Y-118750000D03*
X153650000Y-118250000D03*
X153650000Y-117750000D03*
X153650000Y-117250000D03*
X153650000Y-116750000D03*
X153650000Y-116250000D03*
X153650000Y-115750000D03*
X153650000Y-115250000D03*
X153650000Y-114750000D03*
X153650000Y-114250000D03*
X153650000Y-113750000D03*
X153650000Y-113250000D03*
X153650000Y-112750000D03*
X153650000Y-112250000D03*
X153650000Y-111750000D03*
X153650000Y-111250000D03*
X153650000Y-110750000D03*
X153650000Y-110250000D03*
X153650000Y-109750000D03*
D13*
X155350000Y-108080000D03*
X155350000Y-125920000D03*
%TD*%
D12*
%TO.C,J1*%
X136905000Y-102110000D03*
X136905000Y-102610000D03*
X136905000Y-103110000D03*
X136905000Y-103610000D03*
X136905000Y-104110000D03*
X136905000Y-104610000D03*
X136905000Y-105110000D03*
X136905000Y-105610000D03*
X136905000Y-106110000D03*
X136905000Y-106610000D03*
X136905000Y-107110000D03*
X136905000Y-107610000D03*
X136905000Y-108110000D03*
X136905000Y-108610000D03*
X136905000Y-109110000D03*
X136905000Y-109610000D03*
X136905000Y-110110000D03*
X136905000Y-110610000D03*
X136905000Y-111110000D03*
X136905000Y-111610000D03*
X136905000Y-112110000D03*
X136905000Y-112610000D03*
D13*
X135205000Y-114280000D03*
X135205000Y-100440000D03*
%TD*%
M02*
